<svg width="812" height="902" viewBox="0 0 812 902" fill="none" xmlns="http://www.w3.org/2000/svg">
<g clip-path="url(#clip0_573_755)">
<path fill-rule="evenodd" clip-rule="evenodd" d="M419.753 581.636C573.955 556.326 625.084 475.927 625.084 475.927C625.084 475.927 390.478 434.767 262.545 448.179C134.612 461.591 72.9085 475.927 72.9085 475.927L0 553.333C114.502 602.216 265.55 606.945 419.753 581.636Z" fill="#063BA7"/>
<path fill-rule="evenodd" clip-rule="evenodd" d="M615.919 720.341C615.919 720.341 601.04 736.635 585.605 744.357C570.207 752.116 560.004 757.991 563.64 767.191C567.239 776.391 595.549 773.879 615.919 767.191C636.289 760.504 651.278 749.973 652.614 746.907C653.95 743.84 651.835 721.265 649.423 715.538C647.012 709.811 615.919 720.341 615.919 720.341Z" fill="white" stroke="black" stroke-width="0.989017" stroke-linecap="round" stroke-linejoin="round"/>
<path fill-rule="evenodd" clip-rule="evenodd" d="M760.918 664.549C760.918 664.549 765.593 690.043 764.777 706.189C763.998 722.336 760.51 735.97 772.049 739.96C783.551 743.95 800.025 727.028 807.001 696.731C813.976 666.433 810.377 641.863 810.229 640.385C810.08 638.944 791.862 632.515 790.378 632.256C788.931 631.998 760.918 664.549 760.918 664.549Z" fill="white" stroke="black" stroke-width="0.989017" stroke-linecap="round" stroke-linejoin="round"/>
<path fill-rule="evenodd" clip-rule="evenodd" d="M565.789 334.528C565.789 334.528 552.655 353.741 566.568 457.306C580.519 560.872 608.533 722.225 609.609 723.296C615.768 729.43 646.118 721.744 654.244 716.867C647.565 623.462 644.634 531.498 639.774 438.204L643.521 437.687C643.521 437.687 655.023 515.5 669.791 558.212C684.521 600.887 755.834 667.911 759.284 670.017C762.772 672.16 774.571 664.696 785.85 654.277C797.093 643.858 795.609 631.184 795.609 631.184C795.609 631.184 729.676 548.458 728.08 533.789C726.485 519.084 718.174 374.69 714.946 355.477C711.718 336.264 710.938 334.638 710.938 334.638L565.789 334.528Z" fill="black" stroke="black" stroke-width="0.395607" stroke-linecap="round" stroke-linejoin="round"/>
<path fill-rule="evenodd" clip-rule="evenodd" d="M540.189 216.92L535.885 258.302L502.27 370.218L524.198 385.367C524.198 385.367 573.954 283.131 579.037 260.962C584.12 238.83 585.456 221.723 585.456 221.723L540.189 216.92Z" fill="white" stroke="black" stroke-width="0.989017" stroke-linecap="round" stroke-linejoin="round"/>
<path fill-rule="evenodd" clip-rule="evenodd" d="M570.246 148.788C570.246 148.788 606.83 123.109 653.321 131.422C713.651 142.211 729.68 167.89 725.45 225.64L703.448 228.301C703.448 228.301 699.96 255.531 704.784 285.977C707.381 302.308 710.831 317.346 713.466 327.765C713.503 328.393 713.688 329.132 714.059 330.056C714.468 331.719 714.876 333.233 715.247 334.6C715.952 340.882 711.87 344.54 708.383 346.461C695.248 351.929 668.83 360.797 636.439 360.427C604.233 360.058 579.04 353.222 566.536 349.01C557.074 345.094 561.044 337.298 563.456 330.499C566.276 322.038 572.88 304.672 573.845 296.766C575.069 287.048 575.069 278.218 575.069 278.218C575.069 278.218 559.523 267.835 557.223 255.531C554.959 243.265 559.226 226.195 559.226 226.195L532.438 220.578C532.438 220.578 536.408 169.11 570.246 148.788Z" fill="#063BA7"/>
<path fill-rule="evenodd" clip-rule="evenodd" d="M666.638 232.404L703.445 228.303L718.954 226.418C718.954 226.418 717.285 272.308 688.9 312.064C660.479 351.821 630.203 372.401 630.203 372.401C630.203 372.401 630.574 383.337 630.054 386.404C629.535 389.471 628.31 394.015 628.31 394.015C628.31 394.015 633.95 393.35 632.614 399.631C631.279 405.876 623.895 412.822 618.255 415.778C612.615 418.697 608.757 414.078 608.757 414.078C608.757 414.078 604.416 413.709 602.115 412.674C599.852 411.677 598.776 409.94 598.776 409.94C598.776 409.94 592.951 409.607 590.131 406.689C587.311 403.733 585.048 392.02 585.048 392.02C585.048 392.02 562.785 410.938 557.442 411.196C552.062 411.455 553.398 408.056 557.48 402.772C561.561 397.525 579.148 382.007 584.231 376.539C589.314 371.071 616.4 335.822 616.4 335.822L663.707 266.692L666.638 232.404Z" fill="white"/>
<path fill-rule="evenodd" clip-rule="evenodd" d="M562.822 26.7855C540.04 41.1953 540.3 54.2749 543.788 74.5595C547.424 95.583 566.495 136.854 593.135 134.49C574.027 183.04 625.712 186.882 636.398 150.636C639.07 141.547 639.626 130.093 639.626 130.093L629.831 91.3709C629.831 91.3709 642.817 84.7941 642.558 71.8253C642.298 58.8935 631.575 59.6694 631.575 59.6694C633.059 22.2039 589.425 9.97405 562.822 26.7855Z" fill="white"/>
<path d="M591.127 86.0417C592.917 85.8243 594.161 83.9489 593.904 81.8529C593.648 79.7568 591.988 78.2339 590.197 78.4513C588.407 78.6687 587.163 80.5441 587.42 82.6402C587.676 84.7362 589.336 86.2592 591.127 86.0417Z" fill="black"/>
<path d="M558.496 91.1208C560.286 90.9034 561.53 89.028 561.273 86.9319C561.017 84.8359 559.357 83.313 557.566 83.5304C555.776 83.7478 554.532 85.6232 554.789 87.7192C555.046 89.8153 556.705 91.3382 558.496 91.1208Z" fill="black"/>
<path d="M571.508 82.9097C571.508 82.9097 572.139 91.999 572.139 96.1371C572.139 100.276 571.656 102.382 571.656 102.382L580.301 103.194" stroke="black" stroke-width="0.989017" stroke-linecap="round" stroke-linejoin="round"/>
<path fill-rule="evenodd" clip-rule="evenodd" d="M583.898 110.658L596.254 104.673C596.254 104.673 598.109 113.282 592.098 115.425C586.05 117.531 583.898 110.658 583.898 110.658Z" stroke="black" stroke-width="0.989017" stroke-linecap="round" stroke-linejoin="round"/>
<path d="M584.23 68.7595C584.23 68.7595 587.533 68.0205 591.28 68.0205C595.028 68.0205 596.029 68.2422 596.029 68.2422" stroke="black" stroke-width="0.989017" stroke-linecap="round" stroke-linejoin="round"/>
<path d="M559.93 72.6748C559.93 72.6748 557.296 72.8595 553.956 74.0049C550.617 75.1503 549.059 76.4066 549.059 76.4066" stroke="black" stroke-width="0.989017" stroke-linecap="round" stroke-linejoin="round"/>
<path d="M629.646 83.8713C629.646 83.8713 628.31 78.7355 629.164 73.5258C630.054 68.3161 634.284 65.6558 634.284 65.6558" stroke="black" stroke-width="0.989017" stroke-linecap="round" stroke-linejoin="round"/>
<path d="M635.066 75.3368L629.166 73.5264" stroke="black" stroke-width="0.989017" stroke-linecap="round" stroke-linejoin="round"/>
<path d="M580.967 111.988L583.897 110.658" stroke="black" stroke-width="0.989017" stroke-linecap="round" stroke-linejoin="round"/>
<path d="M614.954 115.24C611.949 125.216 605.678 129.575 597.107 133.012" stroke="black" stroke-width="0.989017" stroke-linecap="round" stroke-linejoin="round"/>
<path d="M596.478 144.948L593.955 137.115" stroke="black" stroke-width="0.989017" stroke-linecap="round" stroke-linejoin="round"/>
<path d="M566.421 198.89L561.115 221.355" stroke="black" stroke-width="0.989017" stroke-linecap="round" stroke-linejoin="round"/>
<path d="M623.451 204.913C625.643 204.913 627.421 203.028 627.421 200.701C627.421 198.375 625.643 196.489 623.451 196.489C621.258 196.489 619.48 198.375 619.48 200.701C619.48 203.028 621.258 204.913 623.451 204.913Z" fill="black"/>
<path d="M594.619 397.081C594.619 397.081 595.473 403.14 596.289 405.209C597.068 407.278 598.775 409.939 598.775 409.939" stroke="black" stroke-width="0.989017" stroke-linecap="round" stroke-linejoin="round"/>
<path d="M605.342 399.888C605.342 399.888 606.269 405.947 606.937 408.164C607.605 410.344 608.755 414.076 608.755 414.076" stroke="black" stroke-width="0.989017" stroke-linecap="round" stroke-linejoin="round"/>
<path d="M616.512 409.163C616.512 409.163 621.075 405.69 623.895 401.7C626.715 397.672 628.311 394.014 628.311 394.014" stroke="black" stroke-width="0.989017" stroke-linecap="round" stroke-linejoin="round"/>
<path d="M583.785 141.51C570.762 205.246 658.549 188.472 652.019 131.202" stroke="#6CA3B7" stroke-width="0.989017" stroke-linecap="round" stroke-linejoin="round"/>
<path d="M606.27 223.312C607.308 209.826 607.012 208.274 608.162 182.263" stroke="#6CA3B7" stroke-width="0.989017" stroke-linecap="round" stroke-linejoin="round"/>
<path d="M718.954 226.418C718.954 226.418 717.285 272.308 688.9 312.064C660.479 351.821 630.203 372.401 630.203 372.401C630.203 372.401 630.574 383.337 630.054 386.404C629.535 389.471 628.31 394.015 628.31 394.015C628.31 394.015 633.95 393.35 632.614 399.631C631.279 405.876 623.895 412.822 618.255 415.778C612.615 418.697 608.757 414.078 608.757 414.078C608.757 414.078 604.416 413.709 602.115 412.674C599.852 411.677 598.776 409.94 598.776 409.94C598.776 409.94 592.951 409.607 590.131 406.689C587.311 403.733 585.048 392.02 585.048 392.02C585.048 392.02 562.785 410.938 557.442 411.196C552.062 411.455 553.398 408.056 557.48 402.772C561.561 397.525 579.148 382.007 584.231 376.539C589.314 371.071 616.4 335.822 616.4 335.822L663.707 266.692L666.638 232.404" stroke="black" stroke-width="0.989017" stroke-linecap="round" stroke-linejoin="round"/>
<path d="M674.096 269.165L663.707 266.689" stroke="black" stroke-width="0.989017" stroke-linecap="round" stroke-linejoin="round"/>
<path d="M544.231 259.781L535.883 258.303" stroke="black" stroke-width="0.989017" stroke-linecap="round" stroke-linejoin="round"/>
<path d="M662.445 203.213L661.035 231.959L693.352 229.447" stroke="black" stroke-width="0.989017" stroke-linecap="round" stroke-linejoin="round"/>
<path fill-rule="evenodd" clip-rule="evenodd" d="M556.85 13.7435C528.169 36.9839 523.605 90.8913 532.733 133.049C536.146 148.9 542.231 160.797 550.171 168.409C555.292 160.797 561.822 153.814 570.244 148.789C570.244 148.789 578.333 143.284 591.764 138.222C592.173 137.003 592.618 135.746 593.137 134.49C566.497 136.855 547.426 95.5837 543.79 74.5602C543.085 70.3112 542.491 66.3577 542.231 62.6629L542.268 63.2541C549.949 60.9263 570.17 54.4604 579.409 48.1423C590.911 40.2723 597.367 33.4738 597.367 33.4738C597.367 33.4738 596.811 46.1471 602.45 55.8644C608.09 65.6188 611.541 59.6332 611.541 59.6332C611.541 59.6332 617.848 75.7795 620.817 77.5161C623.599 79.1418 623.006 67.3923 625.714 63.2171C626.939 61.4806 628.757 60.0765 631.577 59.6701C631.577 59.6701 642.3 58.8942 642.559 71.826C642.819 84.7949 629.833 91.3716 629.833 91.3716L627.644 93.1082C627.644 93.1082 620.408 128.209 620.408 152.225C620.408 176.279 615.585 207.204 636.215 212.82C643.858 214.926 649.349 213.596 653.208 211.158C660.629 211.601 667.344 209.975 671.315 207.537C679.069 202.733 684.969 195.787 684.969 195.787C684.969 195.787 669.979 187.511 670.239 144.799C670.498 102.087 666.083 45.7776 651.464 26.8232C636.882 7.86876 620.928 8.42299 620.928 8.42299C601.003 -5.39563 575.365 -1.22049 556.85 13.7435Z" fill="#6BB1F8"/>
<path d="M600.447 26.786C600.447 26.786 603.935 20.9113 608.202 16.3666C612.506 11.822 617.033 9.97461 617.033 9.97461" stroke="white" stroke-width="0.989017" stroke-linecap="round" stroke-linejoin="round"/>
<path d="M583.009 27.5991C583.009 27.5991 565.051 36.947 559.151 42.0089C553.252 47.0708 551.396 49.066 551.396 49.066" stroke="white" stroke-width="0.989017" stroke-linecap="round" stroke-linejoin="round"/>
<path d="M590.242 17.3289C590.242 17.3289 581.523 16.6638 575.92 18.9176C570.28 21.1715 563.676 26.2703 563.676 26.2703" stroke="white" stroke-width="0.989017" stroke-linecap="round" stroke-linejoin="round"/>
<path d="M584.6 8.0902C584.6 8.0902 589.98 7.42514 594.247 8.23799C598.551 9.05085 601.111 9.56812 601.111 9.56812" stroke="white" stroke-width="0.989017" stroke-linecap="round" stroke-linejoin="round"/>
<path d="M619.184 31.7373C619.184 31.7373 622.931 38.9422 624.007 41.0852C625.083 43.1912 626.827 45.482 626.827 45.482" stroke="white" stroke-width="0.989017" stroke-linecap="round" stroke-linejoin="round"/>
<path d="M631.24 31.1831C631.24 31.1831 639.552 43.1913 641.555 48.1423C643.596 53.0934 646.008 56.8251 646.008 56.8251" stroke="white" stroke-width="0.989017" stroke-linecap="round" stroke-linejoin="round"/>
<path d="M636.731 133.271C636.731 133.271 636.434 155.44 635.654 164.234C634.911 173.064 635.951 176.279 635.951 176.279" stroke="white" stroke-width="0.989017" stroke-linecap="round" stroke-linejoin="round"/>
<path d="M646.381 117.012L646.121 147.975" stroke="white" stroke-width="0.989017" stroke-linecap="round" stroke-linejoin="round"/>
<path d="M657.065 132.126C657.065 132.126 655.767 142.361 656.843 147.977C657.919 153.556 658.475 156.254 658.475 156.254" stroke="white" stroke-width="0.989017" stroke-linecap="round" stroke-linejoin="round"/>
<path d="M633.988 23.8667C633.988 23.8667 637.402 25.4555 639.814 29.0025C642.225 32.5126 642.967 34.5817 642.967 34.5817" stroke="white" stroke-width="0.989017" stroke-linecap="round" stroke-linejoin="round"/>
<path d="M550.319 141.843C546.906 136.375 544.902 128.394 544.457 121.891" stroke="white" stroke-width="0.989017" stroke-linecap="round" stroke-linejoin="round"/>
<path d="M558.075 131.423L556.887 127.026" stroke="white" stroke-width="0.989017" stroke-linecap="round" stroke-linejoin="round"/>
<path d="M699.473 364.973C699.473 364.973 695.837 371.772 693.017 374.839C690.197 377.905 688.453 379.383 688.453 379.383" stroke="white" stroke-width="0.989017" stroke-linecap="round" stroke-linejoin="round"/>
<path d="M700.663 378.163L694.244 386.328" stroke="white" stroke-width="0.989017" stroke-linecap="round" stroke-linejoin="round"/>
<path d="M387.248 217.994C387.397 218.289 384.911 243.007 384.132 250.914L387.248 217.994ZM387.248 217.994C387.137 217.661 376.562 214.336 376.562 202.586C376.562 190.837 385.838 192.315 385.838 192.315L387.248 217.994ZM470.397 170.848C470.991 175.429 470.768 180.491 470.472 185.923C469.396 205.948 464.164 228.487 453.293 244.116C445.315 255.607 434.184 256.9 428.879 256.789" stroke="black" stroke-width="0.989017" stroke-linecap="round" stroke-linejoin="round"/>
<path fill-rule="evenodd" clip-rule="evenodd" d="M399.792 763.274C399.792 763.274 398.308 783.3 402.612 801.442C406.879 819.583 424.985 852.689 437.304 852.8C449.659 852.948 462.386 848.809 462.386 836.949C462.386 825.052 448.954 768.595 448.954 768.595L399.792 763.274Z" fill="white" stroke="black" stroke-width="0.989017" stroke-linecap="round" stroke-linejoin="round"/>
<path fill-rule="evenodd" clip-rule="evenodd" d="M484.605 740.59C484.605 740.59 484.493 765.53 486.497 768.597C488.5 771.664 517.59 829.044 536.735 824.906C555.918 820.768 555.361 808.094 551.502 794.239C547.606 780.346 530.576 740.96 530.576 740.96L484.605 740.59Z" fill="white" stroke="black" stroke-width="0.989017" stroke-linecap="round" stroke-linejoin="round"/>
<path fill-rule="evenodd" clip-rule="evenodd" d="M290.815 446.592C290.815 446.592 281.985 515.168 309.033 538.926C336.119 562.684 398.045 585.665 398.045 585.665C398.045 585.665 395.225 760.061 396.969 764.494C398.713 768.891 408.768 778.904 427.245 780.382C445.76 781.823 451.771 769.15 451.771 769.15L483.272 591.392C483.272 591.392 481.787 740.072 483.012 743.249C484.199 746.464 495.071 757.807 511.433 757.548C527.759 757.253 535.402 744.875 535.402 744.875C535.402 744.875 566.903 579.347 564.491 551.082C562.08 522.78 550.837 500.906 514.921 480.622C479.005 460.3 451.4 438.168 451.4 438.168L290.815 446.592Z" fill="black" stroke="black" stroke-width="0.989017" stroke-linecap="round" stroke-linejoin="round"/>
<path fill-rule="evenodd" clip-rule="evenodd" d="M339.902 509.997L416.41 551.896L548.573 518.532L583.524 448.035L593.468 426.826L586.975 421.062L576.252 423.353C550.168 428.637 462.159 447.591 462.159 447.591L456.667 448.958C454.515 454.353 451.881 459.193 449.135 463.885L440.676 482.692L438.82 483.172L339.902 509.997Z" fill="#6BB1F8"/>
<path d="M418.932 546.5L462.788 453.945L588.198 427.786" stroke="white" stroke-width="0.989017" stroke-linecap="round" stroke-linejoin="round"/>
<path fill-rule="evenodd" clip-rule="evenodd" d="M370.18 496.546C374.038 500.204 383.166 509.108 387.47 514.207C392.961 520.747 394.705 523.998 398.415 524.22C402.089 524.405 402.794 523.518 403.536 523.038C403.536 523.038 405.985 525.624 409.213 525.181C412.403 524.737 413.257 523.112 413.257 523.112C413.257 523.112 415.298 523.666 417.227 522.964C419.193 522.262 419.268 520.673 419.268 520.673C419.268 520.673 423.052 519.749 424.165 515.796C425.315 511.879 423.868 506.263 423.868 506.263C423.868 506.263 427.393 501.386 424.648 494.92C422.162 489.045 411.921 473.453 402.348 466.285L370.18 496.546Z" fill="white"/>
<path d="M388.25 502.053C391.886 506.228 401.83 518.236 403.537 523.039" stroke="black" stroke-width="0.989017" stroke-linecap="round" stroke-linejoin="round"/>
<path d="M397.305 497.73C397.305 497.73 400.904 501.203 405.987 508.445C411.107 515.724 411.961 520.157 413.074 523.372" stroke="black" stroke-width="0.989017" stroke-linecap="round" stroke-linejoin="round"/>
<path d="M405.539 492.593C411.847 499.243 417.783 511.621 419.267 520.673" stroke="black" stroke-width="0.989017" stroke-linecap="round" stroke-linejoin="round"/>
<path d="M412.182 487.754C416.411 492.262 421.272 500.649 423.869 506.265" stroke="black" stroke-width="0.989017" stroke-linecap="round" stroke-linejoin="round"/>
<path d="M370.18 496.546C374.038 500.204 383.166 509.108 387.47 514.207C392.961 520.747 394.705 523.998 398.415 524.22C402.089 524.405 402.794 523.518 403.536 523.038C403.536 523.038 405.985 525.624 409.213 525.181C412.403 524.737 413.257 523.112 413.257 523.112C413.257 523.112 415.298 523.666 417.227 522.964C419.193 522.262 419.268 520.673 419.268 520.673C419.268 520.673 423.052 519.749 424.165 515.796C425.315 511.879 423.868 506.263 423.868 506.263C423.868 506.263 427.393 501.386 424.648 494.92C422.162 489.045 411.921 473.453 402.348 466.285" stroke="black" stroke-width="0.989017" stroke-linecap="round" stroke-linejoin="round"/>
<path fill-rule="evenodd" clip-rule="evenodd" d="M329.552 274.525C329.552 274.525 352.334 254.499 399.492 248.366C446.688 242.233 493.587 252.209 511.545 296.953C529.503 341.66 525.422 398.043 523.307 434.474L473.514 445.152L469.247 376.65C469.247 376.65 461.975 433.07 461.715 440.533C461.455 447.997 451.252 453.354 439.453 457.899C427.654 462.407 406.357 462.555 406.357 462.555L369.624 497.064C369.624 497.064 277.162 464.143 267.255 422.244C257.312 380.345 300.352 292.113 329.552 274.525Z" fill="#063BA7"/>
<path d="M345.432 344.727L325.062 405.58C325.062 405.58 362.871 431.075 376.006 440.275C389.14 449.475 406.356 462.555 406.356 462.555" stroke="black" stroke-width="0.989017" stroke-linecap="round" stroke-linejoin="round"/>
<path d="M480.379 308.149L472.81 351.045L466.539 396.492" stroke="black" stroke-width="0.989017" stroke-linecap="round" stroke-linejoin="round"/>
<path d="M373.146 253.685C373.146 253.685 383.684 284.315 409.693 284.869C435.703 285.387 435.369 265.028 435.48 259.301C435.629 253.574 434.553 245.852 434.553 245.852" stroke="#6CA3B7" stroke-width="0.989017" stroke-linecap="round" stroke-linejoin="round"/>
<path fill-rule="evenodd" clip-rule="evenodd" d="M420.976 369.741L404.873 428.6L535.7 400.815L552.323 345.319L420.976 369.741Z" fill="#6BB1F8"/>
<path fill-rule="evenodd" clip-rule="evenodd" d="M434.48 378.791L431.697 388.952L443.941 386.366L446.836 376.168L434.48 378.791Z" fill="white"/>
<path fill-rule="evenodd" clip-rule="evenodd" d="M429.546 399.299L426.764 409.46L439.045 406.836L441.902 396.676L429.546 399.299Z" fill="white"/>
<path d="M459.598 378.535L528.091 365.196" stroke="white" stroke-width="0.989017" stroke-linecap="round" stroke-linejoin="round"/>
<path d="M457.15 398.449L525.606 385.11" stroke="white" stroke-width="0.989017" stroke-linecap="round" stroke-linejoin="round"/>
<path fill-rule="evenodd" clip-rule="evenodd" d="M432.923 148.014C471.807 150.675 471.548 165.897 470.472 185.923C469.396 205.949 464.164 228.488 453.293 244.117C445.315 255.608 434.184 256.901 428.879 256.79C430.437 264.512 428.099 278.737 407.358 277.555C386.655 276.335 379.345 252.097 379.345 252.097C379.345 252.097 382.314 251.432 384.132 250.915C384.911 243.008 387.397 218.29 387.248 217.994C387.137 217.662 376.562 214.336 376.562 202.587C376.562 190.837 385.838 192.315 385.838 192.315C389.586 165.158 398.008 145.613 432.923 148.014Z" fill="white"/>
<path fill-rule="evenodd" clip-rule="evenodd" d="M470.621 173.028C463.572 173.435 455.223 173.102 446.578 172.437C447.135 173.804 447.432 175.651 446.43 177.462C444.389 181.009 429.585 174.173 429.585 174.173C429.585 174.173 428.175 179.679 420.754 178.644C414.966 177.868 410.699 174.912 409.067 173.582L408.733 173.656C408.733 173.656 401.312 198.485 400.83 201.515C400.384 204.508 394.745 194.236 385.84 192.315C385.84 192.315 376.564 190.837 376.564 202.587C376.564 214.336 387.138 217.661 387.25 217.994C387.324 218.142 386.804 223.61 386.174 230.224C386.174 230.224 380.534 227.342 374.226 214.262C367.956 201.183 363.244 168.41 377.974 152.115C392.741 135.821 422.609 133.974 430.512 131.683C438.453 129.429 474.146 119.971 479.452 125.476C484.758 131.018 474.963 138.445 474.963 138.445C474.963 138.445 486.131 138.371 488.283 143.026C490.435 147.719 479.192 151.709 479.044 153.187C478.896 154.665 486.613 158.581 487.355 165.528C488.097 172.474 470.621 173.028 470.621 173.028Z" fill="black" stroke="black" stroke-width="0.989017" stroke-linecap="round" stroke-linejoin="round"/>
<path d="M441.235 207.169C441.384 214.522 441.755 219.547 443.016 226.789C440.679 227.528 437.191 227.934 434.816 227.343" stroke="black" stroke-width="0.989017" stroke-linecap="round" stroke-linejoin="round"/>
<path d="M422.127 212.706C423.735 212.847 425.173 211.448 425.339 209.579C425.506 207.711 424.336 206.082 422.728 205.94C421.12 205.798 419.682 207.198 419.516 209.066C419.35 210.934 420.519 212.564 422.127 212.706Z" fill="black"/>
<path d="M415.633 200.295C417.711 199.224 421.606 197.968 425.206 197.081" stroke="black" stroke-width="0.989017" stroke-linecap="round" stroke-linejoin="round"/>
<path d="M454.666 197.044C455.111 197.118 455.556 197.192 455.928 197.266C458.339 197.709 460.046 198.338 460.046 198.338" stroke="black" stroke-width="0.989017" stroke-linecap="round" stroke-linejoin="round"/>
<path fill-rule="evenodd" clip-rule="evenodd" d="M436.077 238.502C436.077 238.502 428.359 234.955 424.686 233.44C421.013 231.888 418.787 230.632 418.787 230.632C418.787 230.632 417.377 238.835 423.759 241.384C430.103 243.896 436.077 238.502 436.077 238.502Z" fill="white" stroke="black" stroke-width="0.989017" stroke-linecap="round" stroke-linejoin="round"/>
<path d="M382.238 197.711C382.238 197.711 386.394 200.038 389.214 203.844C391.997 207.65 393.073 212.786 393.073 212.786" stroke="black" stroke-width="0.989017" stroke-linecap="round" stroke-linejoin="round"/>
<path d="M384.172 209.239L389.218 203.844" stroke="black" stroke-width="0.989017" stroke-linecap="round" stroke-linejoin="round"/>
<path d="M395.707 233.255C395.707 233.255 399.046 243.933 407.098 250.473C415.112 257.013 428.878 256.791 428.878 256.791" stroke="black" stroke-width="0.989017" stroke-linecap="round" stroke-linejoin="round"/>
<path d="M452.351 211.439C453.96 211.58 455.398 210.181 455.564 208.312C455.73 206.444 454.561 204.814 452.953 204.673C451.345 204.531 449.906 205.931 449.74 207.799C449.574 209.667 450.743 211.297 452.351 211.439Z" fill="black"/>
<path d="M438.893 239.535L436.074 238.501" stroke="black" stroke-width="0.989017" stroke-linecap="round" stroke-linejoin="round"/>
<path d="M357.123 492.149C357.123 492.149 369.441 477.444 380.424 468.096C391.407 458.748 396.861 455.423 396.861 455.423" stroke="#6CA3B7" stroke-width="0.989017" stroke-linecap="round" stroke-linejoin="round"/>
<path d="M401.717 466.914L392.107 458.749" stroke="#6CA3B7" stroke-width="0.989017" stroke-linecap="round" stroke-linejoin="round"/>
<path d="M374.004 492.924L362.539 485.941" stroke="#6CA3B7" stroke-width="0.989017" stroke-linecap="round" stroke-linejoin="round"/>
<path d="M379.121 488.122L368.102 479.919" stroke="#6CA3B7" stroke-width="0.989017" stroke-linecap="round" stroke-linejoin="round"/>
<path d="M384.945 482.655L373.555 474.416" stroke="#6CA3B7" stroke-width="0.989017" stroke-linecap="round" stroke-linejoin="round"/>
<path d="M390.623 477.333L380.049 468.428" stroke="#6CA3B7" stroke-width="0.989017" stroke-linecap="round" stroke-linejoin="round"/>
<path d="M396.371 471.939L386.316 463.219" stroke="#6CA3B7" stroke-width="0.989017" stroke-linecap="round" stroke-linejoin="round"/>
<path d="M438.75 486.497L414.484 539.481" stroke="black" stroke-width="0.989017" stroke-linecap="round" stroke-linejoin="round"/>
<path d="M294.602 413.561C308.441 407.39 315.38 405.838 325.064 405.58" stroke="black" stroke-width="0.989017" stroke-linecap="round" stroke-linejoin="round"/>
<path d="M479.188 541.29C479.188 541.29 488.463 553.594 486.719 568.114C484.976 582.672 483.009 601.368 482.267 601.22" stroke="white" stroke-width="0.989017" stroke-linecap="round" stroke-linejoin="round"/>
<path d="M470.618 154.147C463.272 151.339 452.549 148.975 438.857 149.455" stroke="white" stroke-width="0.989017" stroke-linecap="round" stroke-linejoin="round"/>
<path d="M465.465 137.188C457.674 137.114 452.776 137.188 443.611 138.851" stroke="white" stroke-width="0.989017" stroke-linecap="round" stroke-linejoin="round"/>
<path d="M446.802 162.942C442.498 161.242 436.933 159.691 430.217 158.841" stroke="white" stroke-width="0.989017" stroke-linecap="round" stroke-linejoin="round"/>
<path d="M391.885 188.88C392.107 185.444 392.516 181.527 393.332 177.611C393.703 175.763 394.148 173.916 394.705 172.142" stroke="white" stroke-width="0.989017" stroke-linecap="round" stroke-linejoin="round"/>
<path d="M385.654 182.339C386.062 177.24 386.99 171.143 388.808 165.638" stroke="white" stroke-width="0.989017" stroke-linecap="round" stroke-linejoin="round"/>
<path d="M378.75 186.367C378.75 183.485 378.899 180.308 379.233 177.056" stroke="white" stroke-width="0.989017" stroke-linecap="round" stroke-linejoin="round"/>
<path d="M196.906 277.148L207.889 254.24M207.889 254.24C204.809 252.43 200.208 248.661 197.945 241.567C194.272 230.224 203.028 224.423 203.028 224.423L207.889 254.24ZM287.439 184.519C290.741 192.832 291.409 203.806 291.186 218.105C290.63 251.21 283.729 277.961 274.675 286.385C265.622 294.809 251.782 291.04 251.782 291.04" stroke="black" stroke-width="0.989017" stroke-linecap="round" stroke-linejoin="round"/>
<path fill-rule="evenodd" clip-rule="evenodd" d="M304.208 357.547C304.208 357.547 298.011 426.935 295.6 452.06C293.188 477.148 295.6 509.958 295.6 509.958C295.6 509.958 309.81 529.466 312.519 538.519C315.19 547.608 308.623 556.143 308.623 556.143C308.623 556.143 307.139 562.166 304.876 562.535C302.575 562.941 299.755 562.018 299.755 562.018C299.755 562.018 298.531 564.272 296.268 565.048C294.041 565.823 291.704 563.644 291.704 563.644C291.704 563.644 288.847 565.343 287.4 563.939C285.953 562.535 283.615 558.988 283.615 558.988C283.615 558.988 278.272 557.436 273.783 553.52C269.293 549.566 258.941 541.401 257.828 522.335C256.715 503.27 251.929 498.061 253.265 465.768C254.6 433.475 257.828 360.318 257.828 360.318L304.208 357.547Z" fill="white"/>
<path d="M272.635 535.193C272.635 535.193 278.163 542.213 280.983 548.568C283.803 554.886 283.617 558.988 283.617 558.988" stroke="black" stroke-width="0.989017" stroke-linecap="round" stroke-linejoin="round"/>
<path d="M286.064 534.75C286.064 534.75 288.699 540.662 290.294 548.938C291.89 557.215 292.298 561.759 292.298 561.759" stroke="black" stroke-width="0.989017" stroke-linecap="round" stroke-linejoin="round"/>
<path d="M295.344 534.417C295.344 534.417 299.091 542.805 299.833 549.086C300.538 555.367 300.093 560.503 300.093 560.503" stroke="black" stroke-width="0.989017" stroke-linecap="round" stroke-linejoin="round"/>
<path d="M303.504 531.055C303.504 531.055 306.138 538.962 307.251 543.839C308.327 548.754 308.402 554.074 308.402 554.074" stroke="black" stroke-width="0.989017" stroke-linecap="round" stroke-linejoin="round"/>
<path d="M304.208 357.547C304.208 357.547 298.011 426.935 295.6 452.06C293.188 477.148 295.6 509.958 295.6 509.958C295.6 509.958 309.81 529.466 312.519 538.519C315.19 547.608 308.623 556.143 308.623 556.143C308.623 556.143 307.139 562.166 304.876 562.535C302.575 562.941 299.755 562.018 299.755 562.018C299.755 562.018 298.531 564.272 296.268 565.048C294.041 565.823 291.704 563.644 291.704 563.644C291.704 563.644 288.847 565.343 287.4 563.939C285.953 562.535 283.615 558.988 283.615 558.988C283.615 558.988 278.272 557.436 273.783 553.52C269.293 549.566 258.941 541.401 257.828 522.335C256.715 503.27 251.929 498.061 253.265 465.768C254.6 433.475 257.828 360.318 257.828 360.318" stroke="black" stroke-width="0.989017" stroke-linecap="round" stroke-linejoin="round"/>
<path fill-rule="evenodd" clip-rule="evenodd" d="M349.475 826.676C349.475 826.676 371.329 831.59 396.225 831.738C421.159 831.886 428.283 840.162 420.899 849.362C413.515 858.562 368.509 872.714 344.911 873.896C321.313 875.115 312.074 844.966 312.074 844.966L349.475 826.676Z" fill="white" stroke="black" stroke-width="0.989017" stroke-linecap="round" stroke-linejoin="round"/>
<path fill-rule="evenodd" clip-rule="evenodd" d="M267.588 871.866C267.588 871.866 270.667 890.525 299.608 898.284C328.549 906.006 384.167 894.404 391.551 884.133C398.935 873.861 396.374 866.656 387.395 863.553C378.416 860.486 323.355 854.759 313.299 851.027C303.244 847.295 267.588 871.866 267.588 871.866Z" fill="white" stroke="black" stroke-width="0.989017" stroke-linecap="round" stroke-linejoin="round"/>
<path fill-rule="evenodd" clip-rule="evenodd" d="M83.6272 469.943C83.6272 469.943 76.392 528.912 120.36 629.818C164.327 730.723 225.956 833.882 243.655 853.76C261.353 873.639 270.035 880.326 270.035 880.326L319.643 852.689L317.639 849.179C317.639 849.179 326.284 846.038 339.605 838.538C352.962 831.074 356.821 828.008 356.821 828.008C356.821 828.008 264.247 536.08 258.348 510.438C252.448 484.833 251.372 477.887 251.372 477.887L83.6272 469.943Z" fill="black" stroke="black" stroke-width="0.395607" stroke-linecap="round" stroke-linejoin="round"/>
<path fill-rule="evenodd" clip-rule="evenodd" d="M151.715 275.079C151.715 275.079 205.849 278.293 263.73 268.428C298.608 273.231 309.887 292.296 313.486 313.726C317.085 335.156 313.338 367.966 313.338 367.966C313.338 367.966 301.539 373.435 289.332 375.984C277.162 378.533 269.926 379.457 269.926 379.457L258.387 480.88C258.387 480.88 258.128 494.514 227.851 499.021C197.537 503.566 153.867 504.896 120.881 496.915C87.9335 488.898 75.8748 481.693 78.806 469.943C81.7372 458.194 106.411 371.07 106.411 371.07L69.9011 356.882L62.2207 353.593L103.74 297.506C103.74 297.506 125.705 274.007 151.715 275.079Z" fill="#6BB1F8"/>
<path fill-rule="evenodd" clip-rule="evenodd" d="M209.186 392.131C209.186 392.131 210.374 386.071 214.826 384.741C219.278 383.448 254.898 377.056 254.898 377.056C257.792 376.28 261.465 378.608 263.061 380.862C263.84 382.155 264.062 382.857 264.1 384.409C264.285 390.801 254.675 468.022 254.675 468.022C254.675 468.022 254.23 471.791 250.631 473.454C247.626 474.821 218.536 479.144 209.78 480.437C209.594 480.474 209.409 480.474 209.186 480.548L207.071 480.843C206.404 480.88 205.847 480.843 205.365 480.732C205.365 480.732 198.426 480.252 198.871 474.673C198.686 473.269 198.946 471.976 198.946 471.976L209.186 392.131Z" fill="#D7F0F7" stroke="black" stroke-width="0.989017" stroke-linecap="round" stroke-linejoin="round"/>
<path fill-rule="evenodd" clip-rule="evenodd" d="M75.0202 358.878L60.8095 386.774C60.8095 386.774 42.5917 419.066 73.6845 432.663C104.777 446.26 179.281 476.188 179.281 476.188C179.281 476.188 200.838 479.957 220.021 477.26C239.166 474.599 241.801 465.843 241.801 465.843C241.801 465.843 245.14 464.476 245.474 461.594C245.808 458.712 244.064 456.569 244.064 456.569C246.253 453.724 246.364 448.773 242.58 448.107C240.688 447.775 241.652 442.491 234.157 442.233C226.662 441.974 220.132 443.969 214.381 443.895C208.63 443.821 202.694 442.787 202.694 442.787L205.217 423.278C205.217 423.278 183.029 445.041 180.468 444.376C177.945 443.711 110.974 400.038 110.974 400.038L125.741 378.571L75.0202 358.878Z" fill="white"/>
<path d="M207.889 452.946C211.154 453.131 215.977 453.168 222.099 452.392C233.898 450.914 241.467 447.848 241.467 447.848" stroke="black" stroke-width="0.989017" stroke-linecap="round" stroke-linejoin="round"/>
<path d="M208.035 462.295C219.203 462.59 238.868 460.337 244.285 456.272" stroke="black" stroke-width="0.989017" stroke-linecap="round" stroke-linejoin="round"/>
<path d="M207.701 470.128C220.502 471.015 230.446 468.946 242.022 465.547" stroke="black" stroke-width="0.989017" stroke-linecap="round" stroke-linejoin="round"/>
<path d="M159.687 341.178L134.382 380.602L106.332 371.254" stroke="black" stroke-width="0.989017" stroke-linecap="round" stroke-linejoin="round"/>
<path d="M276.083 341.882L271.037 372.622" stroke="black" stroke-width="0.989017" stroke-linecap="round" stroke-linejoin="round"/>
<path d="M189.523 275.374C184.403 311.14 205.329 324.921 225.254 324.589C254.677 324.108 264.769 298.355 258.684 272.898" stroke="#A94D4D" stroke-width="0.989017" stroke-linecap="round" stroke-linejoin="round"/>
<path fill-rule="evenodd" clip-rule="evenodd" d="M255.863 164.013C287.661 169.555 292.039 184.963 291.186 218.105C290.295 251.211 283.728 277.961 274.674 286.385C265.621 294.809 251.782 291.041 251.782 291.041C253.414 308 235.159 318.087 219.576 315.168C219.539 315.168 219.501 315.131 219.427 315.131C219.242 315.094 219.056 315.057 218.871 315.02C218.722 314.983 218.611 314.946 218.463 314.946C191.822 308.961 196.905 277.148 196.905 277.148L207.888 254.24C204.808 252.43 200.208 248.661 197.944 241.567C194.271 230.224 203.027 224.423 203.027 224.423C182.212 187.142 218.203 157.51 255.863 164.013Z" fill="white"/>
<path d="M205.029 229.816C205.029 229.816 210.224 229.89 212.636 236.725C215.01 243.561 209.853 248.807 209.853 248.807" stroke="black" stroke-width="0.989017" stroke-linecap="round" stroke-linejoin="round"/>
<path d="M205.402 241.16L212.637 236.726" stroke="black" stroke-width="0.989017" stroke-linecap="round" stroke-linejoin="round"/>
<path d="M243.471 234.988C243.471 234.988 244.139 228.374 249.89 227.857C255.678 227.34 255.604 233.03 255.604 233.03" stroke="black" stroke-width="0.989017" stroke-linecap="round" stroke-linejoin="round"/>
<path d="M273.041 232.441C273.041 232.441 273.709 225.828 279.46 225.31C285.211 224.83 285.137 230.483 285.137 230.483" stroke="black" stroke-width="0.989017" stroke-linecap="round" stroke-linejoin="round"/>
<path d="M266.363 228.006C266.363 228.006 267.365 237.687 270.37 244.448C273.376 251.173 266.437 251.986 266.437 251.986" stroke="black" stroke-width="0.989017" stroke-linecap="round" stroke-linejoin="round"/>
<path fill-rule="evenodd" clip-rule="evenodd" d="M267.437 264.438C265.804 264.069 263.912 263.515 261.908 262.665C256.751 260.485 251.185 256.125 251.185 256.125C251.185 256.125 247.475 265.288 256.825 270.572C258.05 271.274 259.2 271.68 260.276 271.902L267.437 264.438Z" stroke="black" stroke-width="0.989017" stroke-linecap="round" stroke-linejoin="round"/>
<path d="M251.783 291.04C243.435 288.749 234.493 285.128 225.736 275.042" stroke="black" stroke-width="0.989017" stroke-linecap="round" stroke-linejoin="round"/>
<path fill-rule="evenodd" clip-rule="evenodd" d="M288.776 187.843C279.5 185.811 247.517 179.715 234.122 188.73C218.353 199.334 223.325 218.104 224.624 223.314C225.96 228.56 222.027 231.738 220.543 234.213C220.543 234.213 214.866 219.841 203.03 224.422C203.03 224.422 198.28 227.563 197.241 233.733V233.77V233.807C197.204 234.029 197.167 234.25 197.13 234.509V234.546C197.093 234.878 197.056 235.248 197.056 235.617C197.056 235.95 197.019 236.283 197.056 236.652V236.689C197.056 237.206 197.093 237.76 197.204 238.352V238.389C197.241 238.61 197.279 238.869 197.316 239.128V239.164V239.201V239.238L197.353 239.275V239.312V239.349V239.386V239.423L197.39 239.46V239.497V239.534V239.571V239.608L197.427 239.645V239.682V239.719V239.756L197.464 239.793V239.83V239.866V239.903V239.94L197.501 239.977V240.014V240.051V240.088L197.538 240.125V240.162V240.199V240.236L197.575 240.273V240.31V240.347V240.384L197.613 240.421V240.458V240.495L197.65 240.532V240.568V240.605V240.642L197.687 240.679V240.716V240.753V240.79V240.827L197.724 240.864V240.901V240.938L197.761 240.975V241.012V241.049L197.798 241.086V241.123V241.16L197.835 241.197V241.234V241.271L197.872 241.307V241.344V241.381L197.909 241.418V241.455V241.492V241.529L197.946 241.566L198.021 241.825V241.899L198.058 241.973L198.132 242.12V242.194L198.169 242.231L198.206 242.379L198.243 242.527H198.28L198.355 242.785L198.392 242.859L198.429 242.933L198.503 243.155V243.192L198.614 243.45L198.651 243.487L198.763 243.746V243.783V243.82L198.837 243.931L198.874 244.079L198.911 244.116L198.985 244.3L199.022 244.374L199.06 244.448L199.134 244.559L199.171 244.633V244.67L199.245 244.818L199.282 244.928L199.319 244.965L199.393 245.15L199.431 245.224L199.468 245.261L199.542 245.372L199.579 245.483V245.52L199.727 245.741L199.765 245.852L199.839 245.963L199.876 246.037L199.913 246.074L199.95 246.185L200.024 246.295L200.098 246.406L200.136 246.517L200.173 246.554L200.21 246.628L200.284 246.702L200.321 246.776L200.358 246.813L200.395 246.924L200.469 247.034L200.544 247.145L200.618 247.256V247.293L200.655 247.33L200.729 247.441L200.803 247.515V247.552L200.878 247.626L200.952 247.736V247.773L200.989 247.847L201.063 247.921L201.1 247.995L201.137 248.032L201.212 248.143L201.286 248.217L201.36 248.328L201.434 248.401V248.438L201.471 248.512L201.545 248.586L201.583 248.66L201.62 248.697L201.694 248.771L201.768 248.882C203.809 251.505 206.109 253.205 207.89 254.239L202.102 266.321C199.468 264.4 195.015 260.742 194.273 257.417C193.234 252.614 194.681 248.328 194.681 248.328C194.681 248.328 180.99 236.689 185.368 225.346C183.55 225.087 181.027 224.164 180.879 220.653C180.656 215.111 185.331 210.973 185.331 210.973C185.331 210.973 176.278 208.793 179.209 191.649C182.103 174.505 195.757 178.2 197.019 170.847C198.243 163.532 204.662 152.484 219.467 154.96C234.271 157.435 240.504 155.625 244.215 150.6C247.925 145.575 259.167 142.249 265.067 147.385C271.003 152.558 277.348 159.393 282.876 159.393C288.442 159.393 298.571 160.834 300.315 174.653C302.059 188.435 288.776 187.843 288.776 187.843Z" fill="black" stroke="black" stroke-width="0.989017" stroke-linecap="round" stroke-linejoin="round"/>
<path d="M240.691 219.213C240.691 219.213 241.879 217.329 246.628 215.666C251.34 214.003 254.197 214.557 254.197 214.557" stroke="black" stroke-width="0.989017" stroke-linecap="round" stroke-linejoin="round"/>
<path d="M274.154 213.412C274.154 213.412 278.644 212.525 281.723 213.338C284.803 214.114 285.953 215.222 285.953 215.222" stroke="black" stroke-width="0.989017" stroke-linecap="round" stroke-linejoin="round"/>
<path d="M245.398 297.727L248.07 290.227" stroke="black" stroke-width="0.989017" stroke-linecap="round" stroke-linejoin="round"/>
<path d="M96.166 391.39L111.156 399.704" stroke="black" stroke-width="0.989017" stroke-linecap="round" stroke-linejoin="round"/>
<path d="M75.2448 358.545L61.0341 386.441C61.0341 386.441 42.8163 418.734 73.9091 432.368C105.002 445.965 179.469 475.893 179.469 475.893C179.469 475.893 201.063 479.624 220.246 476.964C239.391 474.304 242.025 465.547 242.025 465.547C242.025 465.547 245.365 464.143 245.699 461.261C246.033 458.416 244.289 456.273 244.289 456.273C246.478 453.391 246.589 448.477 242.805 447.775C240.912 447.442 241.877 442.196 234.382 441.937C226.85 441.642 220.357 443.637 214.606 443.6C208.855 443.526 202.918 442.454 202.918 442.454L205.07 424.498C205.07 424.498 183.253 444.708 180.693 444.043C178.17 443.378 111.161 399.705 111.161 399.705L125.965 378.239" stroke="black" stroke-width="0.989017" stroke-linecap="round" stroke-linejoin="round"/>
<path d="M214.494 514.539L201.1 540.181C201.1 540.181 254.714 716.867 274.008 755.293C293.302 793.756 312.336 839.645 312.336 839.645" stroke="white" stroke-width="0.989017" stroke-linecap="round" stroke-linejoin="round"/>
<path d="M256.047 381.267L218.127 388.99C218.127 388.99 214.677 389.47 213.823 394.827C212.933 400.148 211.152 415.149 211.152 415.149L208.666 437.983" stroke="#6CA3B7" stroke-width="0.989017" stroke-linecap="round" stroke-linejoin="round"/>
<path d="M229.557 176.464C229.557 176.464 233.044 171.254 239.463 169.924C245.919 168.594 250.075 171.661 250.075 171.661" stroke="white" stroke-width="0.989017" stroke-linecap="round" stroke-linejoin="round"/>
<path d="M213.121 189.247C210.449 192.794 209.447 196.415 209.447 200.406" stroke="white" stroke-width="0.989017" stroke-linecap="round" stroke-linejoin="round"/>
<path d="M196.496 199.852C193.714 205.135 194.196 211.01 196.496 214.927" stroke="white" stroke-width="0.989017" stroke-linecap="round" stroke-linejoin="round"/>
<path d="M261.24 160.502C265.989 159.874 271.926 163.458 271.555 168.668" stroke="white" stroke-width="0.989017" stroke-linecap="round" stroke-linejoin="round"/>
<path d="M220.616 404.258C222.047 405.953 224.789 405.814 226.74 403.948C228.692 402.082 229.114 399.195 227.683 397.5C226.252 395.805 223.51 395.944 221.558 397.81C219.607 399.676 219.185 402.563 220.616 404.258Z" fill="black"/>
<path d="M107.596 504.859C107.596 504.859 111.195 508.997 115.647 512.212C120.063 515.426 122.586 517.273 122.586 517.273" stroke="white" stroke-width="0.989017" stroke-linecap="round" stroke-linejoin="round"/>
<path d="M111.898 523.074L120.507 527.619" stroke="white" stroke-width="0.989017" stroke-linecap="round" stroke-linejoin="round"/>
<path fill-rule="evenodd" clip-rule="evenodd" d="M229.709 101.275C241.397 101.238 267.629 99.3902 278.649 84.4632C292.971 64.9915 278.241 43.6355 247.816 42.8226C177.022 40.9752 176.688 95.0673 215.684 100.683L222.066 114.65L229.709 101.275Z" fill="white" stroke="black" stroke-width="0.989017" stroke-linecap="round" stroke-linejoin="round"/>
<path fill-rule="evenodd" clip-rule="evenodd" d="M218.281 71.8272C220.321 71.8272 221.954 73.5268 221.954 75.5959C221.954 77.665 220.321 79.3277 218.281 79.3277C216.24 79.3277 214.57 77.665 214.57 75.5959C214.57 73.5268 216.24 71.8272 218.281 71.8272ZM257.388 66.0264C259.428 66.0264 261.061 67.726 261.061 69.7951C261.061 71.8642 259.428 73.5638 257.388 73.5638C255.347 73.5638 253.677 71.8642 253.677 69.7951C253.677 67.726 255.347 66.0264 257.388 66.0264ZM237.463 69.2778C239.504 69.2778 241.136 70.9405 241.136 73.0465C241.136 75.1156 239.504 76.7783 237.463 76.7783C235.422 76.7783 233.753 75.1156 233.753 73.0465C233.753 70.9405 235.422 69.2778 237.463 69.2778Z" fill="black"/>
<path fill-rule="evenodd" clip-rule="evenodd" d="M794.87 103.159C809.229 83.6872 794.462 62.3312 764.037 61.5183C717.138 60.2621 701.183 83.6133 707.083 101.163L699.105 115.573L715.691 112.876C719.846 116.091 725.338 118.418 731.905 119.379C752.052 120.229 781.883 120.82 794.87 103.159Z" fill="white" stroke="black" stroke-width="0.989017" stroke-linecap="round" stroke-linejoin="round"/>
<path fill-rule="evenodd" clip-rule="evenodd" d="M734.503 90.5216C736.544 90.5216 738.214 92.1843 738.214 94.2534C738.214 96.3594 736.544 98.0221 734.503 98.0221C732.463 98.0221 730.83 96.3594 730.83 94.2534C730.83 92.1843 732.463 90.5216 734.503 90.5216ZM773.61 84.7207C775.651 84.7207 777.321 86.4204 777.321 88.4895C777.321 90.5586 775.651 92.2212 773.61 92.2212C771.57 92.2212 769.937 90.5586 769.937 88.4895C769.937 86.4204 771.57 84.7207 773.61 84.7207ZM753.686 87.9722C755.727 87.9722 757.396 89.6349 757.396 91.704C757.396 93.7731 755.727 95.4727 753.686 95.4727C751.645 95.4727 749.975 93.7731 749.975 91.704C749.975 89.6349 751.645 87.9722 753.686 87.9722Z" fill="black"/>
</g>
<defs>
<clipPath id="clip0_573_755">
<rect width="812" height="902" fill="white"/>
</clipPath>
</defs>
</svg>
