<?xml version="1.0" standalone="no"?>
<!DOCTYPE svg PUBLIC "-//W3C//DTD SVG 20010904//EN"
 "http://www.w3.org/TR/2001/REC-SVG-20010904/DTD/svg10.dtd">
<svg version="1.0" xmlns="http://www.w3.org/2000/svg"
 width="512.000000pt" height="512.000000pt" viewBox="0 0 512.000000 512.000000"
 preserveAspectRatio="xMidYMid meet">
<metadata>
ESKIS logo 2024
</metadata>
<g transform="translate(0.000000,512.000000) scale(0.040000,-0.040000)"
fill="#000000" stroke="none">
<path d="M6579 10971 l-29 -29 0 -296 0 -296 -1700 0 -1700 0 0 -1950 0 -1950
-621 -2 -621 -3 -19 -24 c-28 -35 -25 -92 7 -122 l26 -24 614 -3 614 -3 0
-2180 0 -2179 1695 0 c932 0 1695 -3 1696 -7 0 -5 4 -141 8 -303 4 -162 11
-303 15 -312 17 -39 106 -46 151 -12 19 14 20 28 23 324 l3 310 1829 0 1830 0
0 1375 0 1375 434 0 434 0 16 25 c22 33 21 97 -3 126 l-19 24 -431 3 -431 3 0
714 0 715 578 0 577 0 23 33 c31 46 29 87 -6 120 l-28 27 -572 0 -572 0 0
1950 0 1950 -1830 0 -1830 0 0 289 c0 159 -4 301 -9 314 -10 25 -55 47 -98 47
-14 0 -38 -13 -54 -29z m3281 -1446 l0 -335 -214 0 -213 0 -7 92 c-3 50 -6
115 -6 145 l0 53 -2870 0 -2870 0 0 185 0 185 3073 3 c1689 1 3080 3 3090 5
16 2 17 -20 17 -333z m-980 -956 l0 -441 -97 90 c-54 50 -123 110 -154 135
-244 197 -616 354 -1004 423 -94 16 -236 19 -1462 28 l-533 4 0 -644 0 -644
-54 0 -54 0 -5 598 c-5 614 -7 651 -46 686 -27 25 -117 32 -163 13 -73 -31
-68 60 -66 -1274 l3 -1197 43 -31 c80 -56 164 -35 207 51 18 37 20 65 23 497
l4 457 38 0 c76 0 70 41 70 -486 l0 -474 773 1 c987 0 1225 8 1365 43 57 14
105 26 108 26 8 0 4 -499 -4 -504 -5 -3 -49 8 -98 24 -49 15 -123 34 -164 40
-67 10 -1071 27 -1757 29 l-223 1 0 -590 0 -590 -54 0 -53 0 -5 578 c-6 624
-6 631 -60 666 -14 9 -44 19 -69 22 -63 9 -111 -13 -134 -62 -16 -35 -18 -85
-23 -621 l-5 -583 -102 0 -103 0 -6 598 c-4 328 -9 603 -11 609 -3 7 -19 22
-37 33 -27 17 -47 20 -108 18 -72 -3 -75 -4 -90 -33 -13 -26 -15 -119 -18
-627 l-3 -598 -59 0 -60 0 0 1235 0 1235 55 0 55 0 0 -407 c1 -448 7 -543 42
-580 53 -56 162 -49 204 14 18 28 22 52 28 198 4 92 4 632 0 1201 l-7 1035
-32 28 c-40 34 -91 46 -145 31 -79 -21 -75 14 -78 -687 l-3 -623 -58 0 -58 0
-6 218 c-4 119 -7 406 -7 638 l0 421 -102 7 c-99 7 -105 9 -161 47 -55 39
-204 117 -257 135 -37 13 771 19 2908 22 l1872 2 0 -441z m980 -319 l0 -750
-215 0 -215 0 0 750 0 750 215 0 215 0 0 -750z m-5995 359 c146 -33 270 -131
335 -263 22 -44 45 -105 50 -135 6 -29 10 -202 10 -382 l0 -329 -290 0 -290 0
0 568 0 568 68 -8 c37 -4 90 -13 117 -19z m3065 -269 c433 -9 542 -16 695 -46
203 -39 500 -165 678 -286 185 -126 452 -423 555 -617 l43 -81 480 0 479 0 0
-430 0 -430 -713 0 -714 0 -5 344 c-5 259 -9 351 -20 372 -20 44 -73 74 -128
74 -56 0 -64 -6 -180 -125 -136 -139 -240 -199 -437 -251 -87 -23 -127 -27
-368 -35 -148 -5 -505 -10 -793 -12 l-522 -2 0 768 0 767 258 -1 c141 0 453
-4 692 -9z m-2670 -1257 c0 -126 3 -319 7 -430 l6 -203 -296 0 -297 0 0 430 0
430 290 0 290 0 0 -227z m8 -1112 c-2 -165 -6 -302 -8 -305 -3 -3 -135 -6
-293 -8 l-287 -3 0 308 0 307 296 0 296 0 -4 -299z m5592 -11 l0 -310 -715 0
-715 0 0 310 0 310 715 0 715 0 0 -310z m-2615 -450 c419 -10 427 -11 593 -91
92 -45 116 -62 222 -164 65 -62 132 -121 149 -129 16 -9 53 -16 81 -16 45 0
55 4 95 41 l45 42 0 138 0 139 715 0 715 0 0 -316 0 -316 -215 4 c-179 2 -217
6 -225 18 -8 12 -48 16 -243 18 -201 3 -239 1 -277 -14 -42 -16 -156 -17
-1482 -21 l-1438 -5 0 341 0 341 448 -1 c246 0 614 -4 817 -9z m-2975 -355 l0
-315 -295 0 -295 0 0 315 0 315 295 0 295 0 0 -315z m-10 -762 c0 -148 -5
-319 -10 -381 -8 -97 -13 -120 -42 -175 -43 -81 -137 -176 -210 -210 -61 -29
-157 -46 -255 -47 l-63 0 0 540 0 540 290 0 290 0 0 -267z m490 -355 l0 -622
32 -33 c29 -30 37 -33 93 -33 48 0 70 5 96 23 l34 23 9 632 8 632 104 0 104 0
0 -492 c1 -508 9 -740 29 -776 17 -32 50 -45 113 -45 66 0 100 18 124 66 15
28 18 97 22 639 l5 608 53 0 54 0 0 -645 0 -645 748 0 c825 0 1117 9 1295 40
324 55 603 157 813 299 107 72 275 219 344 302 l50 60 0 -445 0 -446 -2412 1
-2413 0 65 23 c82 29 131 54 226 116 l77 50 98 0 99 0 0 584 c0 320 3 611 6
645 l7 61 58 0 59 0 0 -622z m4036 609 c12 -12 -108 -159 -236 -288 -266 -267
-550 -405 -1010 -489 -95 -18 -179 -23 -490 -30 -206 -5 -531 -9 -722 -10
l-348 0 0 416 0 417 1400 -5 c769 -2 1402 -7 1406 -11z m1074 -507 l0 -520
-213 0 -214 0 -6 383 c-4 210 -7 441 -7 514 l0 132 43 4 c23 2 122 4 220 5
l177 2 0 -520z m0 -1230 l0 -510 -3090 0 -3090 0 0 175 0 175 2876 0 2875 0
-7 329 -7 329 29 5 c16 2 116 5 222 6 l192 1 0 -510z"/>
<path d="M2253 9963 c-78 -8 -110 -91 -59 -150 l24 -28 269 0 c237 0 272 2
295 17 50 33 45 110 -8 145 -24 15 -55 18 -253 19 -124 1 -245 0 -268 -3z"/>
<path d="M10764 9963 c-74 -10 -103 -98 -51 -150 26 -27 28 -27 201 -31 226
-6 341 3 367 29 26 26 26 98 0 130 -19 24 -20 24 -253 25 -128 1 -247 0 -264
-3z"/>
<path d="M2276 9211 c-46 -5 -63 -12 -82 -34 -32 -37 -32 -87 0 -124 l24 -28
274 0 c294 0 312 3 324 52 10 39 -8 94 -38 116 -25 19 -45 21 -235 23 -114 1
-234 -1 -267 -5z"/>
<path d="M10760 9213 c-63 -12 -97 -87 -64 -143 28 -46 66 -52 331 -48 l235 3
24 28 c28 32 34 107 10 126 -8 7 -40 16 -73 20 -66 10 -425 21 -463 14z"/>
<path d="M2267 7971 c-64 -10 -82 -30 -81 -92 0 -37 6 -55 23 -72 21 -21 29
-22 209 -22 162 0 192 2 214 17 51 33 43 129 -12 158 -24 13 -287 22 -353 11z"/>
<path d="M1890 5628 c-30 -33 -27 -98 6 -129 l26 -24 285 0 285 0 19 24 c26
32 26 100 -1 129 -20 22 -25 22 -310 22 -285 0 -290 0 -310 -22z"/>
<path d="M10988 5639 c-27 -16 -40 -76 -23 -115 20 -48 56 -54 305 -54 291 1
320 9 320 92 0 28 -7 46 -25 63 l-24 25 -268 0 c-159 0 -275 -5 -285 -11z"/>
<path d="M2213 4821 c-37 -23 -47 -50 -39 -97 12 -62 20 -64 324 -64 l274 0
29 29 c16 16 29 39 29 51 0 29 -26 76 -47 86 -10 4 -135 9 -278 11 -245 4
-262 3 -292 -16z"/>
<path d="M2209 3621 c-20 -16 -24 -29 -24 -70 0 -83 5 -85 217 -89 100 -2 192
-1 205 2 24 7 53 52 53 85 0 33 -21 68 -47 80 -15 7 -93 11 -202 11 -161 0
-181 -2 -202 -19z"/>
<path d="M10853 3630 c-52 -21 -59 -105 -14 -151 28 -28 33 -29 123 -29 163 1
297 16 319 36 29 26 26 98 -6 129 -24 25 -25 25 -212 24 -103 0 -198 -4 -210
-9z"/>
<path d="M2185 2796 c-22 -29 -26 -42 -21 -71 4 -19 18 -47 31 -62 l23 -28
273 3 c219 2 278 6 296 17 26 18 39 72 26 112 -18 53 -43 57 -334 61 l-267 4
-27 -36z"/>
<path d="M10753 2823 c-32 -6 -73 -59 -73 -93 0 -16 11 -41 23 -56 32 -36 80
-42 343 -43 l210 -1 28 29 c22 23 28 39 28 70 -1 55 -16 78 -60 91 -35 9 -451
12 -499 3z"/>
</g>
</svg>
